<?xml version="1.0" encoding="UTF-8"?>
<!-- Generator: visioncortex VTracer 0.6.4 -->
<svg version="1.1" xmlns="http://www.w3.org/2000/svg" width="614" height="147">
<path d="M0 0 C4.19 3.11 7.47 6.78 10.61 10.93 C7.51 14.13 4.42 16.61 0.61 18.93 C-0.05 18.93 -0.71 18.93 -1.39 18.93 C-2.52 17.68 -3.6 16.38 -4.64 15.06 C-8.66 10.36 -11.62 9.19 -17.77 8.62 C-23.96 9.15 -28.51 10.56 -32.77 15.25 C-36.8 20.48 -37.96 25.35 -37.39 31.93 C-36.19 37.59 -33.87 41.22 -29.28 44.74 C-24.2 47.96 -19.32 48.32 -13.53 47.47 C-7.48 45.95 -4.03 41.64 -0.39 36.93 C3.66 38.16 7.05 39.63 10.61 41.93 C10.28 47.27 7.41 50.47 3.61 53.93 C-6.12 60.78 -14.71 61.98 -26.39 60.93 C-34.81 59.11 -41.45 54.37 -46.19 47.23 C-51.18 38.16 -52.46 29.88 -50.33 19.75 C-47.63 10.45 -42.69 3.9 -34.39 -1.07 C-23.99 -6.74 -10.1 -5.81 0 0 Z " fill="#FFFFFF" transform="translate(83.39453125,31.06640625)"/>
<path d="M0 0 C7.26 4.29 11.3 9.84 13.44 17.94 C13.44 21.57 13.44 25.2 13.44 28.94 C0.24 29.27 -12.96 29.6 -26.56 29.94 C-22.95 35.93 -22.95 35.93 -17.56 38.94 C-12.52 39.62 -8.75 39.55 -4.19 37.19 C-1.86 35.19 0.35 33.18 2.44 30.94 C5.41 32.59 8.38 34.24 11.44 35.94 C10.04 41.53 7.25 44.88 2.6 48.28 C-5.07 52.41 -15.35 52.45 -23.61 50.05 C-30.48 46.91 -35.3 42.19 -38.44 35.31 C-41.02 27.21 -40.57 19.2 -37.06 11.5 C-29.68 -1.71 -13.82 -6.39 0 0 Z M-25.44 15.06 C-26.73 16.86 -26.73 16.86 -26.56 18.94 C-17.65 18.94 -8.74 18.94 0.44 18.94 C-1.34 14.48 -2.1 12.87 -5.56 9.94 C-13.55 7.27 -19.76 8.63 -25.44 15.06 Z " fill="#FFFFFF" transform="translate(349.5625,41.0625)"/>
<path d="M0 0 C4.29 0 8.58 0 13 0 C13.33 5.28 13.66 10.56 14 16 C15.3 15.01 15.3 15.01 16.62 14 C22.31 10.77 28.69 11.16 35 12 C40.73 14.07 44.14 17.63 47 23 C48.26 27.13 48.13 31.21 48.1 35.48 C48.1 36.3 48.09 37.12 48.09 37.96 C48.09 40.55 48.08 43.15 48.06 45.75 C48.06 47.51 48.05 49.28 48.05 51.04 C48.04 55.36 48.02 59.68 48 64 C43.71 64 39.42 64 35 64 C34.99 63 34.97 61.99 34.96 60.96 C34.9 57.22 34.82 53.48 34.74 49.75 C34.7 48.13 34.68 46.52 34.65 44.9 C34.62 42.58 34.57 40.25 34.51 37.93 C34.5 36.85 34.5 36.85 34.49 35.75 C34.36 31.36 33.7 28.5 31 25 C27.52 23.26 23.79 23.4 20 24 C16.72 26.53 15.31 28.08 14 32 C13.85 34.44 13.74 36.85 13.68 39.29 C13.66 40 13.64 40.71 13.62 41.43 C13.56 43.68 13.5 45.94 13.44 48.19 C13.39 49.72 13.35 51.24 13.31 52.77 C13.2 56.51 13.1 60.26 13 64 C8.71 64 4.42 64 0 64 C0 42.88 0 21.76 0 0 Z " fill="#FFFFFF" transform="translate(148,27)"/>
<path d="M0 0 C3.26 1.73 6.13 3.77 8.88 6.25 C7.71 9.74 6.74 10.35 3.81 12.44 C2.71 13.23 2.71 13.23 1.59 14.04 C1.02 14.44 0.46 14.84 -0.12 15.25 C-2.38 14.16 -4.38 13.07 -6.44 11.62 C-9.92 9.84 -12.26 9.83 -16.12 10.25 C-18.63 11.27 -18.63 11.27 -20.12 13.25 C-20.79 15.75 -20.79 15.75 -20.12 18.25 C-16.78 21.46 -12.6 22.65 -8.31 24.12 C-1.39 26.63 4.34 28.73 8.81 34.94 C10.74 40.96 10.89 46.73 8.25 52.56 C5.16 57.97 0.83 61.35 -5.12 63.25 C-16.37 64.28 -25.16 63.37 -34.19 56.19 C-35.91 54.71 -35.91 54.71 -37.12 53.25 C-37.12 52.26 -37.12 51.27 -37.12 50.25 C-35.26 48.43 -35.26 48.43 -32.81 46.56 C-32.01 45.94 -31.21 45.32 -30.39 44.68 C-28.12 43.25 -28.12 43.25 -25.12 43.25 C-23.78 44.9 -22.44 46.57 -21.12 48.25 C-17.53 50.95 -13.43 50.56 -9.12 50.25 C-6.77 49.83 -6.77 49.83 -5.12 49.25 C-4.27 45.94 -4.27 45.94 -4.12 42.25 C-7.26 37.85 -11.51 36.88 -16.44 35.38 C-23.41 33.08 -29.21 30.99 -33.26 24.4 C-35.15 19.7 -35.02 13.89 -33.4 9.12 C-27.02 -2.82 -11.76 -5.03 0 0 Z " fill="#FFFFFF" transform="translate(423.125,28.75)"/>
<path d="M0 0 C32.36 0 32.36 0 39.02 5.75 C43.75 11.66 46.62 17.38 45.75 25.24 C44.23 33.24 40.48 38.24 34 43 C29.63 45.28 25.49 45.24 20.69 45.12 C16.88 45.06 16.88 45.06 13 45 C13 50.94 13 56.88 13 63 C8.71 63 4.42 63 0 63 C0 42.21 0 21.42 0 0 Z M13 11 C13 18.59 13 26.18 13 34 C22.96 34.22 22.96 34.22 30.88 29.19 C32.34 26.33 32.87 24.22 33 21 C31.46 16.85 29.86 14.22 26 12 C21.23 10.64 21.23 10.64 13 11 Z " fill="#FFFFFF" transform="translate(98,28)"/>
<path d="M0 0 C2.63 -0.22 5.01 -0.28 7.62 -0.19 C8.33 -0.17 9.04 -0.16 9.77 -0.15 C11.51 -0.11 13.26 -0.06 15 0 C13.38 4.8 10.71 8.67 7.88 12.81 C7.41 13.51 6.94 14.2 6.46 14.91 C5.31 16.61 4.16 18.31 3 20 C4.05 20.09 4.05 20.09 5.12 20.19 C12.59 21.16 17.13 23.19 22 29 C25.94 35.16 25.77 41.85 25 49 C23.27 55.72 18.83 59.54 13 63 C6.4 65.2 -3.21 65.34 -9.62 62.38 C-15.36 58.81 -18.7 53.89 -20.55 47.48 C-23.68 30.21 -9 13.5 0 0 Z M-7 37 C-8.55 40.1 -8.29 42.58 -8 46 C-5.9 49.37 -3.88 51.89 0 53 C4.3 52.92 6.43 52.43 9.88 49.81 C12.29 46.62 13 44.99 13 41 C11.48 36.93 9.95 33.98 6 32 C-0.32 31.06 -2.71 32.71 -7 37 Z " fill="#FFFFFF" transform="translate(503,28)"/>
<path d="M0 0 C6.96 5.05 9.94 11.31 12.12 19.54 C13.15 26.76 10.5 33.83 6.61 39.88 C2.63 44.84 -1.64 48.08 -7.88 49.54 C-18.12 50.55 -25.01 49.8 -33.07 43.35 C-38.35 38.51 -41.26 32.67 -42.12 25.56 C-42.38 18.27 -40.74 11.26 -36.23 5.39 C-26.58 -4.6 -12.35 -7.27 0 0 Z M-25.88 12.54 C-29.2 17.28 -29.76 21.91 -28.88 27.54 C-27.58 31.18 -25.64 33.85 -22.76 36.47 C-18.4 38.08 -14.46 38.43 -9.88 37.54 C-5.65 35.14 -2.71 32.06 -0.88 27.54 C-0.16 22.9 -0.43 19.42 -2.57 15.22 C-6.53 10.35 -6.53 10.35 -12.21 8.15 C-17.89 7.9 -21.57 8.54 -25.88 12.54 Z " fill="#FFFFFF" transform="translate(241.8828125,42.46484375)"/>
<path d="M0 0 C4.17 2.58 6.52 5.66 8.62 10.06 C10.01 16.61 9.02 21.82 5.56 27.6 C3.51 30.41 0.87 32.38 -1.94 34.38 C-2.8 35.01 -2.8 35.01 -3.68 35.67 C-6.17 37.51 -8.69 39.31 -11.21 41.11 C-11.9 41.61 -12.6 42.11 -13.31 42.62 C-13.9 43.03 -14.49 43.44 -15.1 43.86 C-17.22 45.66 -17.22 45.66 -19.69 50.31 C-10.45 50.31 -1.21 50.31 8.31 50.31 C8.31 54.27 8.31 58.23 8.31 62.31 C-5.22 62.31 -18.75 62.31 -32.69 62.31 C-32.69 42.76 -32.69 42.76 -25.96 35.43 C-21.42 31.26 -16.27 27.8 -11.2 24.3 C-8.54 22.19 -6.61 20.12 -4.69 17.31 C-4.85 13.89 -5.25 12.75 -7.69 10.31 C-10.69 9.97 -12.78 9.75 -15.69 10.31 C-18.56 12.52 -18.56 12.52 -20.69 15.31 C-21.68 16.3 -22.67 17.29 -23.69 18.31 C-26.99 16.66 -30.29 15.01 -33.69 13.31 C-32.24 7.51 -29.87 3.76 -24.88 0.44 C-17.53 -3.32 -7.52 -3.43 0 0 Z " fill="#FFFFFF" transform="translate(469.6875,28.6875)"/>
<path d="M0 0 C4.88 2.95 6.91 6.61 8.53 12.02 C10.09 19.37 9.65 26.96 9.56 34.44 C9.55 35.99 9.54 37.54 9.54 39.08 C9.51 42.85 9.48 46.61 9.44 50.38 C5.15 50.38 0.86 50.38 -3.56 50.38 C-3.58 49.44 -3.59 48.5 -3.61 47.53 C-3.67 44.03 -3.74 40.53 -3.82 37.03 C-3.86 35.52 -3.89 34.01 -3.91 32.5 C-3.94 30.32 -4 28.14 -4.05 25.96 C-4.08 24.65 -4.1 23.34 -4.13 21.99 C-4.59 18.12 -5.5 15.67 -7.56 12.38 C-11.27 9.9 -14.26 9.72 -18.56 10.38 C-22.28 12.32 -23.32 13.65 -24.66 17.62 C-26.11 23.94 -26.03 30.43 -26.19 36.88 C-26.23 38.17 -26.26 39.47 -26.3 40.81 C-26.4 44 -26.48 47.19 -26.56 50.38 C-30.52 50.38 -34.48 50.38 -38.56 50.38 C-38.56 33.55 -38.56 16.71 -38.56 -0.62 C-34.6 -0.62 -30.64 -0.62 -26.56 -0.62 C-26.23 0.7 -25.9 2.02 -25.56 3.38 C-24.8 2.74 -24.04 2.1 -23.25 1.44 C-17.07 -3.31 -7 -3.18 0 0 Z " fill="#FFFFFF" transform="translate(296.5625,40.625)"/>
</svg>
