<svg xmlns="http://www.w3.org/2000/svg" viewBox="0 0 120 120">
  <defs><linearGradient id="g" x1="0" y1="0" x2="0" y2="1"><stop offset="0" stop-color="#ffb340"/><stop offset="1" stop-color="#ff7a00"/></linearGradient></defs>
  <rect width="120" height="120" rx="28" fill="url(#g)"/>
  <rect x="20" y="93" width="80" height="4" rx="2" fill="#fff" opacity=".55"/>
  <path fill="#fff" d="M35 62l8-18c1.6-3.6 4.4-5 8-5h21c3.4 0 6.2 1.6 8.2 4.4L90 62h4a6 6 0 0 1 6 6v10a4 4 0 0 1-4 4H24a4 4 0 0 1-4-4V68a6 6 0 0 1 6-6h9z"/>
  <path fill="#ff8a1a" opacity=".45" d="M46 60l5-15h9v15zM64 60V45h9.5L82 60z"/>
  <circle cx="39" cy="82" r="10" fill="#c24a00"/><circle cx="39" cy="82" r="4" fill="#fff"/>
  <circle cx="81" cy="82" r="10" fill="#c24a00"/><circle cx="81" cy="82" r="4" fill="#fff"/>
  <rect x="93" y="66" width="4" height="5" rx="2" fill="#ff8a1a"/>
</svg>
